<?xml version="1.0" standalone="no"?>
<!DOCTYPE svg PUBLIC "-//W3C//DTD SVG 20010904//EN"
 "http://www.w3.org/TR/2001/REC-SVG-20010904/DTD/svg10.dtd">
<svg version="1.0" xmlns="http://www.w3.org/2000/svg"
 width="240.000000pt" height="80.000000pt" viewBox="0 0 240.000000 80.000000"
 preserveAspectRatio="xMidYMid meet">
<metadata>
Created by potrace 1.10, written by Peter Selinger 2001-2011
</metadata>
<g transform="translate(0.000000,80.000000) scale(0.100000,-0.100000)"
fill="#000000" stroke="none">
<path d="M970 776 c-6 -8 -10 -25 -8 -38 4 -30 56 -38 75 -12 17 23 16 29 -3
48 -19 20 -48 20 -64 2z"/>
<path d="M1097 598 l2 -163 35 -3 c32 -3 36 0 36 20 0 13 3 18 8 12 12 -18 49
-34 77 -34 17 0 39 12 61 34 31 31 34 40 34 90 0 66 -19 103 -65 122 -35 14
-71 9 -97 -14 -17 -14 -18 -12 -18 41 l0 57 -37 0 -38 0 2 -162z m167 0 c32
-45 7 -98 -45 -98 -46 0 -66 64 -32 102 22 25 59 23 77 -4z"/>
<path d="M750 593 l0 -158 90 0 90 0 0 27 c0 27 -2 28 -50 28 l-50 0 0 130 0
130 -40 0 -40 0 0 -157z"/>
<path d="M173 646 c-72 -45 -141 -90 -152 -100 -26 -23 -27 -58 -3 -78 34 -30
289 -178 305 -178 9 0 77 37 152 82 134 82 135 83 114 101 -24 19 -38 15 -21
-5 8 -10 -20 -31 -120 -92 -103 -62 -132 -76 -139 -65 -19 31 -7 42 142 133
74 45 135 89 137 97 2 10 -43 43 -135 99 -76 46 -140 84 -143 85 -3 1 -64 -34
-137 -79z m262 -14 c71 -43 130 -82 132 -87 1 -6 -50 -41 -114 -80 -139 -84
-161 -100 -165 -124 -3 -16 -22 -7 -132 60 -71 43 -133 84 -137 91 -9 14 7 48
22 48 10 0 127 -67 207 -118 14 -9 22 -10 22 -3 0 6 -47 38 -105 72 -58 34
-104 64 -101 66 2 2 57 37 122 78 66 40 119 74 120 74 1 1 59 -34 129 -77z"/>
<path d="M1530 683 c-8 -3 -25 -15 -37 -26 l-23 -20 0 21 c0 19 -6 22 -37 22
l-38 0 1 -122 1 -123 37 -3 36 -3 0 73 c0 81 9 98 52 98 27 0 28 2 28 45 0 25
-1 45 -2 44 -2 0 -10 -3 -18 -6z"/>
<path d="M1655 683 c-44 -11 -85 -70 -85 -123 0 -37 21 -90 43 -108 30 -25 86
-27 118 -3 29 21 29 21 29 1 0 -16 6 -20 35 -20 l35 0 0 125 0 125 -40 0 c-32
0 -38 -3 -33 -16 6 -15 4 -15 -18 -1 -31 19 -59 26 -84 20z m75 -73 c47 -25
26 -110 -28 -110 -36 0 -52 17 -52 54 0 51 38 78 80 56z"/>
<path d="M2284 682 l-41 -3 -23 -74 c-13 -41 -26 -75 -30 -75 -3 0 -16 34 -29
75 l-24 75 -44 0 -43 0 16 -37 c8 -21 31 -75 50 -120 l34 -83 -30 -62 c-17
-34 -30 -63 -30 -65 0 -1 19 -2 41 0 l42 2 79 184 c43 101 77 184 76 185 -2 1
-21 0 -44 -2z"/>
<path d="M960 555 l0 -125 40 0 40 0 0 125 0 125 -40 0 -40 0 0 -125z"/>
<path d="M1890 555 l0 -125 35 0 35 0 0 66 c0 81 11 104 50 104 28 0 30 2 30
40 0 47 -20 53 -57 18 l-23 -21 0 21 c0 18 -6 22 -35 22 l-35 0 0 -125z"/>
<path d="M27 386 c-27 -25 -33 -50 -19 -74 11 -16 300 -192 316 -192 7 0 21 7
32 15 27 20 34 19 34 -10 0 -29 3 -30 35 -9 18 12 25 25 25 48 0 28 7 35 75
74 41 24 75 47 75 52 0 13 -30 33 -37 26 -4 -4 -2 -11 6 -15 9 -6 -7 -20 -51
-48 -55 -36 -65 -39 -79 -27 -15 13 -16 10 -11 -34 3 -36 0 -51 -12 -61 -14
-12 -16 -10 -16 18 l0 32 -40 -23 c-32 -19 -42 -20 -52 -10 -22 22 2 43 143
129 127 78 154 103 130 118 -6 3 -11 0 -11 -9 0 -8 -53 -47 -117 -86 -127 -78
-163 -106 -163 -127 0 -7 -2 -13 -6 -13 -9 0 -259 154 -266 164 -9 13 2 38 27
58 11 9 17 19 14 22 -3 4 -18 -5 -32 -18z"/>
<path d="M1412 246 c5 -41 5 -40 -22 -24 -50 32 -110 -36 -79 -90 13 -24 21
-27 67 -28 l52 -1 0 79 c0 43 0 81 1 85 0 4 -5 9 -11 11 -9 3 -11 -7 -8 -32z
m-7 -81 c0 -38 -2 -40 -32 -43 -27 -3 -35 1 -44 21 -17 38 4 69 44 65 30 -3
32 -5 32 -43z"/>
<path d="M1719 273 c-1 -5 0 -21 1 -38 1 -24 -1 -28 -11 -17 -19 18 -63 15
-82 -6 -21 -23 -22 -76 -1 -96 18 -19 65 -21 82 -4 9 9 12 9 12 0 0 -7 5 -12
10 -12 6 0 10 37 10 90 0 53 -4 90 -10 90 -5 0 -10 -3 -11 -7z m-8 -84 c8 -16
8 -28 0 -46 -9 -19 -17 -24 -42 -21 -36 3 -51 30 -38 66 11 30 64 31 80 1z"/>
<path d="M750 185 c0 -50 4 -85 10 -85 6 0 10 16 10 35 0 32 2 35 30 35 17 0
30 5 30 10 0 6 -13 10 -30 10 -27 0 -30 3 -30 30 0 28 3 30 35 30 19 0 35 5
35 10 0 6 -20 10 -45 10 l-45 0 0 -85z"/>
<path d="M1820 260 c0 -5 7 -10 16 -10 13 0 15 -12 12 -75 -2 -55 0 -75 10
-75 9 0 12 24 12 85 0 84 0 85 -25 85 -14 0 -25 -4 -25 -10z"/>
<path d="M1909 246 c-24 -53 19 -103 68 -80 14 6 10 9 -17 13 -29 5 -36 11
-38 33 -2 18 3 30 17 37 19 10 50 6 52 -8 7 -34 5 -98 -3 -108 -15 -18 -49
-16 -64 5 -11 14 -13 15 -14 1 0 -37 65 -54 91 -23 17 21 18 116 0 137 -8 10
-28 17 -47 17 -27 0 -37 -6 -45 -24z"/>
<path d="M2062 258 c-7 -7 -12 -26 -12 -43 0 -17 5 -36 12 -43 15 -15 61 -15
76 0 15 15 15 8 2 -26 -11 -29 -57 -37 -66 -11 -7 16 -24 21 -24 6 0 -36 66
-53 94 -25 18 18 22 104 6 135 -12 22 -68 27 -88 7z m76 -46 c-2 -23 -8 -27
-33 -27 -24 0 -31 5 -33 24 -5 32 23 54 50 40 13 -7 18 -19 16 -37z"/>
<path d="M2200 220 l0 -49 29 17 c25 14 31 14 45 2 10 -7 16 -24 14 -39 -4
-33 -52 -43 -73 -14 -19 26 -28 11 -9 -15 29 -42 104 -17 104 34 0 38 -23 57
-63 52 -33 -4 -37 -2 -37 19 0 21 5 23 45 23 25 0 45 5 45 10 0 6 -22 10 -50
10 l-50 0 0 -50z"/>
<path d="M877 212 c-22 -25 -21 -75 1 -95 40 -36 112 -6 112 46 0 55 -78 88
-113 49z m84 -23 c8 -16 8 -28 0 -46 -9 -20 -17 -24 -44 -21 -27 3 -33 8 -35
31 -5 43 4 57 37 57 21 0 34 -7 42 -21z"/>
<path d="M1010 187 c0 -23 7 -53 16 -65 16 -23 58 -30 69 -12 4 6 -6 10 -23
10 -34 0 -42 14 -42 71 0 21 -4 39 -10 39 -5 0 -10 -19 -10 -43z"/>
<path d="M1108 178 c-5 -57 -1 -78 13 -78 5 0 9 29 9 65 0 78 -16 87 -22 13z"/>
<path d="M1160 165 c0 -78 16 -87 22 -12 5 56 1 77 -13 77 -5 0 -9 -29 -9 -65z"/>
<path d="M1195 220 c-4 -6 6 -10 23 -10 34 0 42 -14 42 -71 0 -21 5 -39 10
-39 16 0 12 83 -6 108 -16 23 -58 30 -69 12z"/>
<path d="M1476 208 c-34 -48 -7 -108 48 -108 19 0 39 7 46 15 18 22 5 30 -21
12 -22 -16 -48 -12 -61 7 -15 22 -7 26 48 26 53 0 55 1 49 23 -15 49 -81 65
-109 25z m82 -10 c21 -21 13 -28 -33 -28 -25 0 -45 4 -45 8 0 15 24 32 45 32
12 0 26 -5 33 -12z"/>
</g>
</svg>
